<?xml version="1.0" encoding="UTF-8"?> <!-- Generator: Adobe Illustrator 24.1.2, SVG Export Plug-In . SVG Version: 6.00 Build 0) --> <svg xmlns="http://www.w3.org/2000/svg" xmlns:xlink="http://www.w3.org/1999/xlink" version="1.1" id="Layer_1" x="0px" y="0px" viewBox="0 0 120 135" style="enable-background:new 0 0 120 135;" xml:space="preserve"> <style type="text/css"> .st0{fill:#2DA676;} .st1{fill:#FFFFFF;} </style> <path class="st0" d="M52,4.6L9.6,29.2c-4.9,2.9-8,8.1-8,13.8v49c0,5.7,3,11,8,13.8L52,130.4c4.9,2.9,11,2.9,16,0l42.5-24.5 c4.9-2.9,8-8.1,8-13.8V43c0-5.7-3-11-8-13.8L68,4.6C63,1.8,57,1.8,52,4.6z"></path> <g> <g> <polygon class="st1" points="44,70.7 50.2,70.7 47.1,66.4 "></polygon> <path class="st1" d="M35.7,60.2v18.9H59V60.2H35.7z M53.1,74.9l-1.4-2h-9.3l-1.4,2h-3.4l7.3-10.2h1h2.4h1l7.3,10.2H53.1z"></path> </g> <path class="st1" d="M10.3,60.2v18.9H20l5.9,5.4v-5.4h7.7V60.2H10.3z M29.7,74.9h-2.8h-1.4l-8.6-8.1v8.1h-2.8V64.7h0.6h2.2h2l8,7.5 v-7.5h2.8V74.9z"></path> <path class="st1" d="M60.9,60.2v18.9h23.3V60.2H60.9z M80.5,66.9H74v8h-2.8v-8h-6.5v-2.2h6.5H74h6.5V66.9z"></path> <path class="st1" d="M86.5,60.2v18.9h23.3V60.2H86.5z M105.3,72.1c-0.2,1.4-1.5,2.5-3.5,2.8C96.8,75.5,91,74,91,74v-2.3 c0,0,3.4,1.1,6.9,1.2c3.4,0.1,4.8-0.2,4.8-0.8s-0.8-1-2.2-1c-1.4,0-5.6-0.1-6.9-0.6c-1.7-0.6-2.5-1.7-2.1-3.5 c0.4-1.8,3-2.5,5.1-2.5c5.1,0,8.1,1,8.1,1v2.4c0,0-3.6-1.1-7.1-1.1c-0.8,0-2.9-0.2-3.3,0.6c-0.3,0.7,0.1,1.1,2.4,1.2 c2.2,0,5.4,0.1,6.9,0.6C104.9,69.5,105.5,70.7,105.3,72.1z"></path> </g> </svg> 